<?xml version="1.0" standalone="no"?>
<!DOCTYPE svg PUBLIC "-//W3C//DTD SVG 20010904//EN"
 "http://www.w3.org/TR/2001/REC-SVG-20010904/DTD/svg10.dtd">
<svg version="1.0" xmlns="http://www.w3.org/2000/svg"
 width="109.000000pt" height="110.000000pt" viewBox="0 0 109.000000 110.000000"
 preserveAspectRatio="xMidYMid meet">

<g transform="translate(0.000000,110.000000) scale(0.100000,-0.100000)"
fill="#000000" stroke="none">
<path d="M0 550 l0 -550 545 0 545 0 0 550 0 550 -545 0 -545 0 0 -550z m790
416 l225 -62 3 -60 c7 -137 -31 -309 -99 -452 -39 -80 -65 -119 -120 -177
-173 -182 -336 -182 -512 -1 -131 134 -209 344 -211 570 l-1 119 220 63 c121
34 231 63 245 63 14 0 126 -28 250 -63z"/>
<path d="M400 895 c-63 -18 -141 -40 -173 -49 l-57 -17 0 -47 c0 -59 23 -192
45 -257 52 -155 148 -277 257 -328 31 -15 59 -27 62 -27 3 0 6 171 6 380 0
298 -3 380 -12 379 -7 -1 -65 -16 -128 -34z"/>
</g>
</svg>
