<?xml version="1.0" standalone="no"?>
<!DOCTYPE svg PUBLIC "-//W3C//DTD SVG 20010904//EN"
 "http://www.w3.org/TR/2001/REC-SVG-20010904/DTD/svg10.dtd">
<svg version="1.0" xmlns="http://www.w3.org/2000/svg"
 width="803.000000pt" height="543.000000pt" viewBox="0 0 803.000000 543.000000"
 preserveAspectRatio="xMidYMid meet">

<g transform="translate(0.000000,543.000000) scale(0.100000,-0.100000)"
fill="#000000" stroke="none">
<path d="M1885 3156 l-220 -63 1 -119 c2 -226 80 -436 211 -570 176 -181 339
-181 512 1 138 146 231 411 219 629 l-3 60 -225 62 c-124 35 -236 63 -250 63
-14 0 -124 -29 -245 -63z m245 -416 c0 -209 -3 -380 -6 -380 -3 0 -31 12 -62
27 -109 51 -205 173 -257 328 -22 65 -45 198 -45 257 l0 47 57 17 c142 41 289
82 301 83 9 1 12 -81 12 -379z"/>
<path d="M4627 3134 c-4 -4 -7 -139 -7 -301 l0 -293 65 0 65 0 -2 298 -3 297
-55 3 c-31 2 -59 0 -63 -4z"/>
<path d="M4451 3117 c-47 -17 -71 -53 -78 -120 -5 -47 -9 -57 -24 -57 -16 0
-19 -8 -19 -50 0 -43 3 -50 20 -50 19 0 20 -7 20 -150 l0 -150 60 0 60 0 0
150 0 150 50 0 50 0 0 50 0 50 -50 0 c-54 0 -59 6 -40 56 10 24 14 26 50 21
l40 -5 0 43 c0 34 -5 47 -22 59 -26 19 -69 20 -117 3z"/>
<path d="M3302 3094 c-13 -9 -22 -25 -22 -42 0 -35 10 -49 43 -61 66 -25 116
50 67 99 -24 24 -57 26 -88 4z"/>
<path d="M6140 2996 c0 -49 -2 -55 -22 -58 -20 -3 -23 -10 -26 -50 -3 -46 -2
-48 22 -48 l26 0 0 -101 c0 -152 32 -199 134 -199 71 0 76 5 76 68 0 44 -3 53
-12 44 -18 -18 -56 -14 -68 7 -5 11 -10 56 -10 100 l0 81 45 0 45 0 0 50 0 50
-45 0 -45 0 0 55 0 55 -60 0 -60 0 0 -54z"/>
<path d="M3612 2939 c-181 -33 -217 -295 -52 -379 42 -22 119 -27 151 -10 23
13 25 3 5 -45 -26 -61 -81 -72 -124 -26 l-27 30 -43 -40 c-49 -47 -47 -53 25
-96 38 -22 53 -25 112 -21 77 4 122 28 160 84 35 51 41 93 41 307 l0 198 -93
-3 c-51 -1 -97 0 -102 3 -6 3 -29 2 -53 -2z m91 -110 c39 -30 53 -85 34 -131
-47 -112 -165 -69 -154 56 3 38 11 55 31 73 33 28 56 29 89 2z"/>
<path d="M2992 2920 c-71 -43 -81 -138 -19 -184 18 -13 50 -29 72 -36 84 -26
88 -29 74 -46 -17 -20 -65 -11 -96 18 l-24 22 -42 -42 -42 -43 25 -19 c46 -36
87 -50 145 -50 93 0 155 48 155 121 0 55 -32 87 -115 114 -54 17 -70 27 -70
41 0 27 50 22 82 -7 l23 -23 40 39 c38 37 39 40 22 58 -51 57 -167 75 -230 37z"/>
<path d="M3280 2740 l0 -200 65 0 65 0 0 200 0 200 -65 0 -65 0 0 -200z"/>
<path d="M3910 2740 l0 -200 59 0 59 0 4 136 c3 128 5 137 27 155 29 24 63 24
84 1 14 -15 17 -42 17 -155 l0 -137 66 0 66 0 -4 153 c-4 169 -14 204 -68 232
-37 19 -123 19 -160 0 -27 -14 -30 -14 -30 0 0 12 -13 15 -60 15 l-60 0 0
-200z"/>
<path d="M4813 2924 c-3 -8 -3 -77 -1 -152 5 -148 16 -185 62 -216 32 -21 127
-21 166 -1 27 14 30 14 30 0 0 -12 13 -15 60 -15 l60 0 0 200 0 200 -59 0 -59
0 -4 -134 c-3 -148 -14 -176 -68 -176 -52 0 -60 23 -60 173 l0 137 -60 0 c-46
0 -62 -4 -67 -16z"/>
<path d="M5360 2925 c-74 -34 -112 -96 -112 -185 0 -127 78 -200 212 -200 67
0 115 16 144 49 19 21 19 22 -14 56 -32 33 -60 45 -60 27 0 -13 -47 -32 -79
-32 -28 0 -81 39 -81 60 0 6 49 10 140 10 l140 0 0 38 c0 53 -42 132 -86 162
-46 31 -150 39 -204 15z m143 -107 l22 -23 -69 -3 c-37 -2 -71 0 -75 3 -11 12
41 45 70 45 17 0 39 -10 52 -22z"/>
<path d="M5684 2927 c-2 -7 -3 -96 -2 -197 l3 -185 63 -3 62 -3 0 136 c0 122
2 137 20 155 24 24 72 26 91 3 10 -11 15 -56 17 -155 l4 -138 59 0 59 0 0 138
c0 159 -9 201 -51 236 -25 21 -41 26 -85 26 -30 0 -68 -7 -84 -15 -27 -14 -30
-14 -30 0 0 20 -118 22 -126 2z"/>
</g>
</svg>
